<?xml version="1.0" encoding="UTF-8" standalone="no"?>
<svg
   id="Layer_2"
   data-name="Layer 2"
   viewBox="0 0 933.66261 436.26788"
   version="1.1"
   sodipodi:docname="Asset 1.svg"
   inkscape:export-filename="../Documents/personal/rgbdesign/public/images/logo.svg"
   inkscape:export-xdpi="96"
   inkscape:export-ydpi="96"
   width="933.6626"
   height="436.26788"
   xmlns:inkscape="http://www.inkscape.org/namespaces/inkscape"
   xmlns:sodipodi="http://sodipodi.sourceforge.net/DTD/sodipodi-0.dtd"
   xmlns="http://www.w3.org/2000/svg"
   xmlns:svg="http://www.w3.org/2000/svg">
  <sodipodi:namedview
     id="namedview12"
     pagecolor="#505050"
     bordercolor="#eeeeee"
     borderopacity="1"
     inkscape:showpageshadow="0"
     inkscape:pageopacity="0"
     inkscape:pagecheckerboard="0"
     inkscape:deskcolor="#505050"
     inkscape:export-bgcolor="#34343400" />
  <defs
     id="defs1">
    <style
       id="style1">&#10;      .cls-1 {&#10;        font-family: Bahnschrift-SemiLightSemiCondensed, Bahnschrift;&#10;        font-size: 246.59px;&#10;        font-variation-settings: 'wght' 350, 'wdth' 87;&#10;      }&#10;&#10;      .cls-1, .cls-2 {&#10;        fill: #231f20;&#10;        font-weight: 300;&#10;      }&#10;&#10;      .cls-3 {&#10;        fill: #fff;&#10;        opacity: .95;&#10;        stroke: #fff;&#10;        stroke-miterlimit: 10;&#10;        stroke-width: .1px;&#10;      }&#10;&#10;      .cls-4 {&#10;        fill: #ed2024;&#10;      }&#10;&#10;      .cls-5 {&#10;        fill: #6abd45;&#10;      }&#10;&#10;      .cls-2 {&#10;        font-family: Bahnschrift-LightSemiCondensed, Bahnschrift;&#10;        font-size: 165.59px;&#10;        font-variation-settings: 'wght' 300, 'wdth' 87;&#10;      }&#10;&#10;      .cls-6 {&#10;        fill: #3953a4;&#10;      }&#10;    </style>
  </defs>
  <g
     id="Layer_1-2"
     data-name="Layer 1">
    <circle
       class="cls-4"
       cx="43.84"
       cy="47.220001"
       r="43.84"
       id="circle1" />
    <circle
       class="cls-3"
       cx="362.10999"
       cy="47.220001"
       r="10.86"
       id="circle2" />
    <circle
       class="cls-3"
       cx="43.84"
       cy="210.61"
       r="10.86"
       id="circle3" />
    <circle
       class="cls-3"
       cx="43.84"
       cy="376.75"
       r="10.86"
       id="circle4" />
    <circle
       class="cls-3"
       cx="362.10999"
       cy="210.58"
       r="10.86"
       id="circle5" />
    <circle
       class="cls-5"
       cx="202.92"
       cy="210.45"
       r="43.84"
       id="circle6" />
    <circle
       class="cls-6"
       cx="361.60999"
       cy="376.75"
       r="43.84"
       id="circle7" />
    <circle
       class="cls-3"
       cx="202.92"
       cy="47.220001"
       r="10.86"
       id="circle8" />
    <circle
       class="cls-3"
       cx="202.92"
       cy="376.75"
       r="10.86"
       id="circle9" />
    <path
       d="m 27.331997,-93.314086 h 45.513192 q 7.705938,0 13.364986,-3.130537 5.659047,-3.250942 8.669179,-9.150797 3.010132,-6.02027 3.130537,-14.08742 v -9.27121 q 0,-8.18755 -3.130537,-14.32822 -3.010132,-6.14067 -8.669179,-9.39161 -5.659048,-3.25095 -13.364986,-3.25095 H 27.331997 v -19.26484 h 44.188734 q 14.569038,0 25.164702,5.41824 10.595667,5.41823 16.375117,15.65268 5.77945,10.11405 5.77945,23.84025 v 10.71607 q 0,13.8466 -5.77945,24.201455 -5.77945,10.234448 -16.495522,15.77309 -10.595664,5.538643 -25.044297,5.538643 H 27.331997 Z M 16.615927,-175.18967 H 37.205229 V 0 H 16.615927 Z M 69.594247,-79.467479 88.85909,-85.006122 124.86027,0 h -23.71984 z"
       id="text9"
       class="cls-1"
       style="font-weight:300;font-size:246.59px;font-family:Bahnschrift-SemiLightSemiCondensed, Bahnschrift;font-variation-settings:'wdth' 87, 'wght' 350;fill:#ffffff"
       transform="translate(495.23,210.83)"
       aria-label="R" />
    <path
       d="m 118.23798,-93.073275 v 40.094955 q 0,17.33836 -6.02027,29.619697 -6.02026,12.281338 -17.579166,18.7832227 -11.438501,6.3814794 -27.693213,6.3814794 -16.495522,0 -28.174834,-6.0202636 -11.679311,-6.1406685 -17.81998,-17.6995745 -6.020263,-11.558907 -6.020263,-27.934023 v -72.243168 q 0,-17.33835 6.020263,-29.61969 6.020264,-12.28134 17.458765,-18.66282 11.558906,-6.50188 27.813617,-6.50188 15.411875,0 26.24835,5.89985 10.956881,5.89986 16.977141,17.45877 6.14067,11.5589 7.34472,28.77686 v 0 H 94.638544 v 0 q -0.963243,-10.71607 -4.575401,-17.94039 -3.491753,-7.22431 -9.632422,-10.83647 -6.020263,-3.61216 -14.207822,-3.61216 -9.752827,0 -16.615927,4.09378 -6.863101,4.09378 -10.475259,11.92012 -3.491753,7.82634 -3.491753,19.02403 v 72.243168 q 0,10.114042 3.612159,17.338359 3.612158,7.103911 10.595663,10.836474 7.103911,3.732564 17.097549,3.732564 9.632422,0 16.375117,-3.973374 6.8631,-3.973374 10.354853,-11.679312 3.612158,-7.705937 3.612158,-19.024033 V -73.808432 H 66.945331 v -19.264843 z"
       id="text10"
       class="cls-1"
       style="font-weight:300;font-size:246.59px;font-family:Bahnschrift-SemiLightSemiCondensed, Bahnschrift;font-variation-settings:'wdth' 87, 'wght' 350;fill:#ffffff"
       transform="translate(641.9,210.83)"
       aria-label="G" />
    <path
       d="m 31.06456,-19.144438 h 39.252119 q 13.967011,0 20.589301,-5.779453 6.742695,-5.779453 6.742695,-16.134307 V -55.26602 q 0,-8.067153 -2.769321,-13.846606 -2.769321,-5.779453 -8.428369,-8.90999 -5.659048,-3.130537 -13.846606,-3.130537 H 31.06456 v -18.903627 h 41.539819 q 11.19769,0 16.977143,-5.89986 5.779453,-6.02026 5.779453,-17.33836 v -11.19769 q 0,-10.59566 -6.140669,-16.0139 -6.140669,-5.41824 -18.06079,-5.41824 H 31.06456 v -19.14443 h 41.780629 q 14.087417,0 23.719839,4.81621 9.632422,4.6958 14.448632,13.60579 4.93662,8.78959 4.93662,21.31173 v 10.83648 q 0,8.66918 -2.88973,15.77309 -2.76932,7.10391 -8.54877,11.920122 -5.659052,4.81621 -13.84661,6.501884 8.548774,1.324458 14.80985,6.38148 6.26107,5.057021 9.51201,12.883364 3.25095,7.705937 3.25095,17.338359 v 13.48539 q 0,12.281338 -5.17743,21.432139 -5.05702,9.030395 -14.689443,13.9670111 Q 88.738685,0 75.614511,0 H 31.06456 Z M 16.615927,-175.06926 H 37.205229 V 0 H 16.615927 Z"
       id="text11"
       class="cls-1"
       style="font-weight:300;font-size:246.59px;font-family:Bahnschrift-SemiLightSemiCondensed, Bahnschrift;font-variation-settings:'wdth' 87, 'wght' 350;fill:#ffffff"
       transform="translate(781.68,210.83)"
       aria-label="B" />
    <path
       d="m 19.80935,-10.834502 h 27.652236 q 10.025957,0 15.11979,-4.932124 5.093832,-5.012978 5.093832,-14.796371 v -56.436435 q 0,-9.783393 -5.093832,-14.715518 -5.093833,-5.01298 -15.11979,-5.01298 H 19.80935 v -10.8345 h 27.167109 q 10.672793,0 17.868842,3.5576 7.19605,3.47674 10.834502,10.43023 3.638452,6.953484 3.638452,17.222004 v 55.142763 q 0,10.26852 -3.719306,17.222006 Q 71.960496,-7.0343407 64.764447,-3.4767431 57.568397,0 46.895604,0 H 19.80935 Z M 11.15792,-117.56243 H 22.800966 V 0 H 11.15792 Z M 129.12462,1.2128174 q -9.70253,0 -16.73687,-3.8001611 -6.95349,-3.8810155 -10.59194,-11.1579193 -3.638455,-7.276905 -3.638455,-17.626279 v -19.647641 q 0,-10.834502 3.557595,-18.515679 3.5576,-7.681176 10.18767,-11.643046 6.71092,-4.042725 16.25175,-4.042725 9.13656,0 15.60492,3.881016 6.54921,3.800161 9.9451,11.157919 3.47674,7.276904 3.47674,17.707134 v 15.443207 H 105.67682 V -47.704149 H 145.8615 V -53.1214 q 0,-10.106811 -4.68956,-15.685771 -4.6087,-5.57896 -13.01757,-5.57896 -8.97485,0 -13.90697,5.902378 -4.85127,5.821523 -4.85127,16.57517 v 20.860459 q 0,10.187665 5.17469,15.84748 5.17468,5.5789596 14.5538,5.5789596 6.2258,0 10.43023,-3.0724706 4.28529,-3.072471 5.74067,-8.65143 v 0 l 10.91536,3.234179 v 0 q -2.10222,9.2174121 -9.21741,14.311245 -7.1152,5.0129784 -17.86885,5.0129784 z m 71.23281,0 q -7.76203,0 -13.82612,-2.10221679 -5.98323,-2.18307121 -10.10681,-6.46835921 -4.04272,-4.2852884 -6.06409,-10.5919384 v 0 l 9.62169,-3.96187 v 0 q 3.31503,6.468359 8.48972,9.864248 5.17469,3.315034 11.88561,3.315034 9.54083,0 14.63466,-3.881016 5.09383,-3.881015 5.09383,-11.238774 0,-4.68956 -2.50648,-7.276904 -2.50649,-2.587343 -6.38751,-3.800161 -3.88101,-1.212817 -10.34937,-2.263926 -0.48513,-0.08085 -0.97026,-0.161709 -0.40427,-0.08085 -0.8894,-0.242563 -0.24256,0 -0.48512,0 -0.24257,-0.08085 -0.48513,-0.08085 -7.84289,-1.374526 -13.01757,-3.234179 -5.17469,-1.940508 -8.73229,-6.549214 -3.5576,-4.68956 -3.5576,-13.017573 0,-8.085449 3.23418,-13.583554 3.31504,-5.498106 9.62169,-8.328013 6.3875,-2.829907 15.60491,-2.829907 6.87264,0 12.20903,1.859653 5.3364,1.859654 9.0557,5.659815 3.80017,3.800161 5.82153,9.459975 v 0 l -9.62169,3.96187 v 0 q -2.91076,-5.336396 -7.43861,-8.166303 -4.52785,-2.829908 -10.26852,-2.829908 -8.48972,0 -13.01757,3.719307 -4.447,3.638452 -4.447,10.753647 0,4.689561 2.6682,7.276904 2.6682,2.587344 6.63007,3.719307 4.04272,1.131963 10.91535,2.183071 0.16171,0.08085 0.24257,0.08085 0.16171,0 0.32341,0 0.24257,0 0.40428,0.08085 0.24256,0 0.48512,0 7.84289,1.293672 13.09843,3.23418 5.3364,1.859653 8.97485,6.710922 3.63845,4.85127 3.63845,13.664409 0,8.166304 -3.5576,13.745264 -3.47674,5.5789595 -10.26852,8.4897212 -6.79177,2.8299072 -16.65602,2.8299072 z M 250.81064,-115.13679 h 11.64304 v 11.64304 h -11.64304 z m 0,31.209829 h 11.64304 V 0 h -11.64304 z m 60.64085,118.047556 q -11.23877,0 -18.19226,-5.255542 -6.87263,-5.255542 -8.24716,-14.796372 v 0 l 10.43023,-3.07247 v 0 q 1.29367,5.983232 5.49811,9.298266 4.28528,3.315034 10.67279,3.315034 8.97485,0 13.82612,-4.851269 4.93212,-4.85127 4.93212,-13.7452636 V -83.926961 h 11.64305 V 4.2044335 q 0,9.4599755 -3.5576,16.1708985 -3.5576,6.710922 -10.43023,10.187665 -6.87263,3.557598 -16.57517,3.557598 z M 308.62158,1.2936718 q -7.84288,0 -13.42184,-3.3958886 -5.49811,-3.476743 -8.48972,-10.0259572 -2.91077,-6.630068 -2.91077,-15.928334 v -27.167109 q 0,-9.459975 2.82991,-16.170898 2.91076,-6.791777 8.40887,-10.26852 5.4981,-3.557598 13.17928,-3.557598 7.76203,0 13.90697,3.719307 6.2258,3.719306 9.9451,11.319628 l -1.69794,13.745264 q 0.0808,-5.255542 -2.02136,-9.54083 -2.02136,-4.285288 -5.98323,-6.710923 -3.88102,-2.506489 -9.21742,-2.506489 -8.40886,0 -13.09842,5.336396 -4.60871,5.255542 -4.60871,14.715518 v 27.086254 q 0,9.136557 4.60871,14.23039 4.68956,5.0129785 13.09842,5.0129785 5.25555,0 9.13656,-2.4256345 3.96187,-2.506489 5.98323,-6.710923 2.10222,-4.285288 2.10222,-9.54083 l 1.13196,14.311245 q -2.74905,7.3577587 -8.65143,10.9153563 -5.90237,3.5575975 -14.23039,3.5575975 z m 54.65765,-85.2206328 h 11.64305 V 0 h -11.64305 z m 47.38074,28.703344 q 0,-9.379121 -4.60871,-14.311245 -4.60871,-4.932124 -13.42185,-4.932124 -8.65143,0 -13.17928,4.85127 -4.52785,4.770415 -4.52785,13.987827 l -1.69794,-14.068682 q 3.63845,-8.004594 9.78339,-11.804755 6.14494,-3.800161 14.47295,-3.800161 12.12818,0 18.43483,7.681176 6.3875,7.681177 6.3875,22.31584 V 0 h -11.64304 z"
       id="text12"
       class="cls-2"
       style="font-weight:300;font-size:165.59px;font-family:Bahnschrift-LightSemiCondensed, Bahnschrift;font-variation-settings:'wdth' 87, 'wght' 300;fill:#ffffff"
       transform="translate(500.26,391.96)"
       aria-label="Design" />
  </g>
</svg>
