<?xml version="1.0" encoding="UTF-8" standalone="no"?>
<!-- Created with Inkscape (http://www.inkscape.org/) -->

<svg
   version="1.1"
   id="svg1"
   width="546.1333"
   height="546.1333"
   viewBox="0 0 546.1333 546.1333"
   sodipodi:docname="quantum-computing.png"
   inkscape:export-filename="../Documents/personal/rgbdesign/public/images/icons/computation.svg"
   inkscape:export-xdpi="96"
   inkscape:export-ydpi="96"
   xmlns:inkscape="http://www.inkscape.org/namespaces/inkscape"
   xmlns:sodipodi="http://sodipodi.sourceforge.net/DTD/sodipodi-0.dtd"
   xmlns="http://www.w3.org/2000/svg"
   xmlns:svg="http://www.w3.org/2000/svg">
  <defs
     id="defs1" />
  <sodipodi:namedview
     id="namedview1"
     pagecolor="#505050"
     bordercolor="#eeeeee"
     borderopacity="1"
     inkscape:showpageshadow="0"
     inkscape:pageopacity="0"
     inkscape:pagecheckerboard="0"
     inkscape:deskcolor="#505050" />
  <g
     inkscape:groupmode="layer"
     inkscape:label="Image"
     id="g1">
    <path
       style="fill:#cde9c1;fill-opacity:1"
       d="M 27.657973,544.75621 C 16.734893,541.79797 8.3437733,534.59595 3.3088233,523.85757 0.66400334,518.21681 0.52054334,516.97676 0.21814334,497.14224 c -0.29343,-19.24535 -0.15813,-21.05422 1.81020996,-24.20121 2.08869,-3.33941 7.17402,-5.64543 12.4805697,-5.65951 3.82717,-0.0102 9.37666,-4.57842 12.0103,-9.88673 2.03635,-4.10442 2.38033,-6.00397 1.79456,-9.91014 -1.23995,-8.2686 -9.39385,-15.40908 -17.59603,-15.40908 -2.0478397,0 -4.4837397,-1.13144 -6.7009297,-3.1125 l -3.48348996,-3.1125 V 273.84902 121.84745 l 2.57058996,-2.73627 c 1.41383,-1.50495 4.29383,-3.02404 6.4,-3.37575 7.4682797,-1.24716 10.6657297,-2.76057 14.2766197,-6.75739 9.55337,-10.574444 3.86625,-25.946861 -10.70845,-28.94513 C 0.09460334,77.363212 -0.29659666,76.430512 0.17308334,49.279064 0.51915334,29.273737 0.66028334,28.075557 3.3451433,22.347582 7.2971833,13.916169 12.938623,8.1328355 21.158753,4.0859255 l 7.06251,-3.47699695 192.556027,-0.316674 c 136.1719,-0.223946 193.72548,0.0223 196.54981,0.84095595 4.16827,1.208205 7.20621,5.259118 7.20621,9.6090505 0,3.526354 -2.7798,7.999445 -5.83686,9.392335 -2.13515,0.972839 -47.98262,1.274331 -193.78545,1.274331 -211.506357,0 -195.427607,-0.544718 -200.665347,6.798172 -2.1162,2.966747 -2.41509,4.866922 -2.70581,17.201827 l -0.32682,13.866665 7.0152,3.59432 c 23.7296,12.158137 28.63708,42.933899 9.91756,62.194859 -2.5592,2.63322 -7.38894,6.08194 -10.73277,7.66382 l -6.07968,2.87616 v 138.55066 138.55066 l 3.1008,0.68105 c 3.95211,0.86803 12.25657,6.75293 16.05939,11.38038 9.75078,11.8652 11.80811,28.62167 5.20132,42.3635 -3.34333,6.95397 -13.07728,16.39865 -19.37612,18.80031 l -5.14794,1.96283 0.34794,13.42405 c 0.30726,11.85445 0.6261,13.81401 2.72693,16.75921 5.26576,7.38217 -16.1095197,6.79817 248.820997,6.79817 264.93052,0 243.55523,0.584 248.82099,-6.79817 2.1032,-2.94853 2.41602,-4.88086 2.69836,-16.6685 l 0.31937,-13.33333 -6.4896,-3.08431 c -7.23861,-3.4403 -14.50927,-10.73006 -18.10003,-18.14758 -6.48675,-13.39985 -4.34736,-30.30757 5.32404,-42.07618 3.80281,-4.62745 12.10727,-10.51235 16.05938,-11.38038 l 3.10081,-0.68105 V 274.15541 135.60475 l -5.85386,-2.76932 C 489.73065,119.0143 489.11475,77.620972 517.90508,62.869911 l 7.0152,-3.59432 -0.32682,-13.866665 c -0.29072,-12.334905 -0.58962,-14.23508 -2.70582,-17.201827 -4.20007,-5.888175 -7.72039,-6.798172 -26.29871,-6.798172 h -16.62197 l -3.45925,-3.090842 C 470.8381,14.145789 470.61707,7.9057415 474.98433,3.5422615 l 2.93588,-2.93333295 h 19.99876 19.99875 l 7.05967,3.47699695 c 8.21706,4.047031 13.85987,9.8326895 17.81077,18.2616565 2.68486,5.727975 2.82599,6.926155 3.17205,26.931482 0.46969,27.151448 0.0785,28.084148 -12.89901,30.753846 -14.57469,2.998269 -20.26182,18.370686 -10.70844,28.94513 3.61089,3.99682 6.80834,5.51023 14.27661,6.75739 2.10618,0.35171 4.98618,1.8708 6.4,3.37575 l 2.5706,2.73627 v 152.00157 152.00155 l -3.4835,3.1125 c -2.21718,1.98106 -4.65308,3.1125 -6.70092,3.1125 -8.20218,0 -16.35608,7.14048 -17.59603,15.40908 -0.58577,3.90617 -0.24179,5.80572 1.79455,9.91014 2.63365,5.30831 8.18313,9.87658 12.01031,9.88673 5.30655,0.0141 10.39188,2.3201 12.48057,5.65951 1.96843,3.14715 2.10372,4.95687 1.81118,24.22761 l -0.31616,20.82641 -3.477,7.05881 c -4.04678,8.21554 -9.83265,13.85859 -18.26166,17.81086 l -5.99467,2.81085 -242.66666,0.2005 C 85.158993,546.03309 31.476043,545.79027 27.657973,544.75621 Z M 165.65477,497.38519 c -3.42008,-2.68761 -4.58811,-6.80032 -4.58811,-16.15503 v -8.30653 l -9.23266,-0.70968 c -18.56958,-1.42737 -36.91178,-9.79563 -51.18165,-23.35061 -16.074417,-15.26913 -24.986257,-33.62043 -26.671047,-54.9211 l -0.69603,-8.8 h -9.48017 c -11.15033,0 -14.11171,-1.39398 -15.94245,-7.50444 -1.04896,-3.50114 -0.93102,-4.56392 0.84513,-7.6156 2.59894,-4.46534 7.08683,-6.07467 17.15888,-6.15308 l 7.73333,-0.0602 v -9.6 -9.6 h -9.11964 c -10.92395,0 -14.70951,-1.56762 -16.43879,-6.80738 -1.50654,-4.56485 -0.61258,-8.2843 2.75044,-11.4437 2.2552,-2.11865 3.98931,-2.51365 12.70975,-2.89505 l 10.09824,-0.44166 v -9.47277 -9.47277 h -9.58317 c -9.06578,0 -9.76994,-0.16687 -13.04242,-3.09084 -4.66733,-4.17026 -4.89017,-10.41074 -0.52763,-14.77582 2.71633,-2.71792 3.67415,-2.96048 13.04242,-3.30297 l 10.1108,-0.36963 v -9.39407 -9.39407 l -10.1108,-0.36963 c -9.36827,-0.34249 -10.32609,-0.58505 -13.04242,-3.30297 -4.36254,-4.36508 -4.1397,-10.60556 0.52763,-14.77582 3.27248,-2.92397 3.97664,-3.09084 13.04242,-3.09084 h 9.58317 v -9.47277 -9.47277 l -10.09824,-0.44166 c -8.72044,-0.3814 -10.45455,-0.7764 -12.70975,-2.89505 -3.36302,-3.1594 -4.25698,-6.87885 -2.75044,-11.4437 1.72928,-5.23976 5.51484,-6.80738 16.43879,-6.80738 h 9.11964 v -9.60001 -9.6 h -8.03426 c -9.80992,0 -14.67967,-1.85031 -17.07851,-6.48916 -1.47439,-2.85115 -1.57898,-4.15418 -0.59664,-7.43296 1.8019,-6.01419 4.8018,-7.41121 15.91452,-7.41121 h 9.48017 l 0.69603,-8.8 c 1.68479,-21.30068 10.59663,-39.65198 26.671047,-54.921102 14.26987,-13.554979 32.61207,-21.923243 51.18165,-23.350614 l 9.23266,-0.709678 v -8.216799 c 0,-4.51924 0.51591,-9.696754 1.14647,-11.505587 2.34221,-6.718866 11.0869,-8.848205 16.66071,-4.056897 2.85401,2.453338 3.00982,3.071738 3.35944,13.333333 l 0.36662,10.760675 h 9.50004 9.50005 v -7.333333 c 0,-4.033333 0.29863,-8.826515 0.66363,-10.651515 1.70638,-8.531884 11.48419,-11.63143 17.55175,-5.563869 3.01206,3.012062 3.11795,3.464867 3.11795,13.333333 v 10.215384 h 9.6 9.6 v -7.333333 c 0,-9.958628 0.85107,-13.493493 4.00909,-16.651514 3.61251,-3.612515 9.66463,-3.661433 13.79809,-0.111528 2.815,2.417573 3.02451,3.193947 3.52615,13.066666 l 0.53333,10.496375 h 9.6 9.6 l 0.53334,-10.496375 c 0.50164,-9.872719 0.71115,-10.649093 3.52614,-13.066666 4.13347,-3.549905 10.18558,-3.500987 13.7981,0.111528 3.15802,3.158021 4.00909,6.692886 4.00909,16.651514 v 7.333333 h 9.6 9.6 V 63.460207 c 0,-9.868466 0.10588,-10.321271 3.11795,-13.333333 6.06756,-6.067561 15.84537,-2.968015 17.55174,5.563869 0.365,1.825 0.66364,6.618182 0.66364,10.651515 v 7.333333 h 9.50004 9.50005 l 0.36662,-10.760675 c 0.34962,-10.261595 0.50543,-10.879995 3.35944,-13.333333 5.5738,-4.791308 14.31849,-2.661969 16.6607,4.056897 0.63057,1.808833 1.14648,6.988148 1.14648,11.509588 v 8.2208 l 8.26667,0.700801 c 20.9506,1.776072 39.2916,10.765954 54.38776,26.658281 13.55498,14.26986 21.92324,32.61206 23.35061,51.18164 l 0.70968,9.23266 h 10.0135 c 11.68919,0 14.62353,1.32218 16.44785,7.41121 0.98234,3.27878 0.87775,4.58181 -0.59664,7.43296 -2.441,4.72039 -7.24153,6.48916 -17.61184,6.48916 h -8.56759 v 9.6 9.60001 h 9.65297 c 11.49203,0 15.21881,1.49478 16.97212,6.80738 1.50817,4.56979 0.61209,8.28477 -2.76319,11.45569 -2.2975,2.15839 -3.94649,2.51847 -13.24309,2.89187 l -10.61881,0.42651 v 9.47594 9.47594 h 10.1165 c 9.65418,0 10.27459,0.14125 13.57576,3.09084 4.6671,4.17006 4.89012,10.41058 0.52804,14.77582 -2.74155,2.74355 -3.61992,2.95706 -13.57575,3.29996 l -10.64455,0.36662 v 9.40009 9.40009 l 10.64455,0.36662 c 9.95583,0.3429 10.8342,0.55641 13.57575,3.29996 4.36208,4.36524 4.13906,10.60576 -0.52804,14.77582 -3.30117,2.94959 -3.92158,3.09084 -13.57576,3.09084 h -10.1165 v 9.6 9.6 l 8.79999,0.002 c 14.28859,0.003 20.66956,4.93042 17.98541,13.88931 -1.84034,6.14252 -4.74214,7.44236 -16.61454,7.44236 h -10.17086 v 9.6 9.6 l 8.26666,0.0602 c 10.5959,0.0772 15.05937,1.62949 17.69221,6.15308 1.77616,3.05168 1.8941,4.11446 0.84513,7.6156 -1.80016,6.0084 -4.67269,7.37032 -16.30335,7.72975 l -9.96732,0.30803 -0.77802,8 c -2.12777,21.87866 -10.58626,39.5711 -26.06012,54.50933 -15.00378,14.48443 -31.95874,22.34547 -51.82852,24.02992 l -8.26667,0.7008 v 8.2208 c 0,4.52144 -0.51591,9.70075 -1.14648,11.50959 -2.34221,6.71886 -11.0869,8.8482 -16.6607,4.05689 -2.85401,-2.45334 -3.00982,-3.07173 -3.35944,-13.33333 l -0.36662,-10.76067 h -9.50005 -9.50004 v 7.33333 c 0,4.03333 -0.29864,8.82651 -0.66364,10.65151 -1.70637,8.53189 -11.48418,11.63143 -17.55174,5.56387 -3.01207,-3.01206 -3.11795,-3.46487 -3.11795,-13.33333 v -10.21538 h -9.6 -9.6 v 7.33333 c 0,9.95863 -0.85107,13.49349 -4.00909,16.65151 -3.61252,3.61252 -9.66463,3.66143 -13.7981,0.11153 -2.81499,-2.41757 -3.0245,-3.19395 -3.52614,-13.06667 l -0.53334,-10.49637 h -9.6 -9.6 l -0.53333,10.49637 c -0.50164,9.87272 -0.71115,10.6491 -3.52615,13.06667 -4.13346,3.5499 -10.18558,3.50099 -13.79809,-0.11153 -3.15802,-3.15802 -4.00909,-6.69288 -4.00909,-16.65151 v -7.33333 h -9.6 -9.6 v 10.21538 c 0,9.86846 -0.10589,10.32127 -3.11795,13.33333 -6.06756,6.06756 -15.84537,2.96802 -17.55175,-5.56387 -0.365,-1.825 -0.66363,-6.61818 -0.66363,-10.65151 v -7.33333 h -9.50005 -9.50004 l -0.36662,10.76067 c -0.34962,10.2616 -0.50543,10.87999 -3.35944,13.33333 -3.59499,3.0903 -9.75048,3.408 -13.21907,0.68228 z m 236.90946,-48.21676 c 11.95172,-3.05673 20.21379,-7.84968 29.44636,-17.08224 9.23256,-9.23257 14.02551,-17.49464 17.08224,-29.44636 2.03774,-7.96747 2.10714,-12.2328 2.10714,-129.49758 0,-117.26479 -0.0694,-121.53012 -2.10714,-129.49759 -3.05673,-11.95172 -7.84968,-20.21379 -17.08224,-29.44636 -9.23257,-9.23255 -17.49464,-14.0255 -29.44636,-17.082237 -7.96747,-2.037736 -12.2328,-2.10714 -129.49758,-2.10714 -117.26478,0 -121.53011,0.0694 -129.49758,2.10714 -11.95172,3.056737 -20.21379,7.849687 -29.44636,17.082237 -9.23256,9.23257 -14.02551,17.49464 -17.082247,29.44636 -2.03773,7.96747 -2.10714,12.2328 -2.10714,129.49759 0,117.26478 0.0694,121.53011 2.10714,129.49758 3.056737,11.95172 7.849687,20.21379 17.082247,29.44636 9.10059,9.10058 17.44909,13.99951 29.02578,17.03242 7.4396,1.94905 13.1817,2.0421 129.48087,2.09823 117.80397,0.0568 121.95952,-0.009 129.93487,-2.04841 z M 265.19224,429.88487 c -18.33541,-4.58081 -34.55219,-24.24411 -45.94951,-55.71509 -1.37476,-3.79609 -2.30144,-4.97929 -3.61258,-4.61258 -12.50953,3.49878 -40.64134,4.20556 -51.36349,1.29045 -9.68492,-2.63311 -18.61934,-7.65171 -23.50676,-13.20411 -15.74251,-17.88444 -9.81649,-47.2182 15.70468,-77.73808 2.53114,-3.0269 4.60208,-6.07035 4.60208,-6.76321 0,-0.69286 -2.07094,-3.73631 -4.60208,-6.76321 -7.53211,-9.00738 -11.98522,-15.6687 -16.59223,-24.81994 -16.33096,-32.43944 -6.4632,-58.38897 25.18478,-66.22916 9.15461,-2.26788 32.63924,-2.24162 43.99363,0.0492 9.00902,1.81762 8.60998,2.03686 11.35176,-6.23688 0.97206,-2.93334 3.55409,-8.97469 5.73784,-13.42523 9.37193,-19.10018 18.63145,-29.93253 30.67399,-35.88428 7.21277,-3.56474 8.96586,-3.99575 16.2523,-3.99575 7.28644,0 9.03953,0.43101 16.2523,3.99575 12.04254,5.95175 21.30206,16.7841 30.67399,35.88428 2.18375,4.45054 4.76578,10.49189 5.73784,13.42523 2.74178,8.27374 2.34274,8.0545 11.35176,6.23688 4.50789,-0.90949 14.25375,-1.65968 22.38411,-1.72303 22.19781,-0.17293 34.71542,3.79937 44.89006,14.24528 17.03529,17.48949 11.47687,47.18802 -14.68799,78.47766 -2.53114,3.0269 -4.60208,6.07035 -4.60208,6.76321 0,0.69286 2.07094,3.73631 4.60208,6.76321 25.55795,30.56386 31.46988,59.82787 15.70468,77.73808 -4.88742,5.5524 -13.82184,10.571 -23.50676,13.20411 -10.72215,2.91511 -38.85396,2.20833 -51.36349,-1.29045 -1.31114,-0.36671 -2.23782,0.81649 -3.61258,4.61258 -6.17497,17.05069 -14.38574,31.64579 -23.41066,41.61374 -10.30977,11.38706 -26.00883,17.16902 -38.28767,14.10135 z m 17.57671,-23.88371 c 7.64785,-5.06111 16.51526,-19.05962 23.15042,-36.54635 l 2.10744,-5.55411 -5.48008,-1.76418 c -3.01404,-0.9703 -10.88008,-3.92336 -17.48008,-6.56236 l -12,-4.79818 -12,4.79818 c -6.6,2.639 -14.46604,5.59206 -17.48008,6.56236 l -5.48008,1.76418 2.0734,5.55411 c 3.88617,10.41003 10.51118,22.75694 15.57026,29.01798 9.08198,11.23972 17.7577,13.65707 27.0188,7.52837 z m -77.55905,-56.1157 6.76114,-1.1774 -1.5039,-7.11624 c -1.2483,-5.9068 -4.51281,-26.6861 -4.58094,-29.15873 -0.0108,-0.39003 -2.5387,-2.55003 -5.61766,-4.8 -3.07897,-2.24996 -9.36301,-7.33084 -13.96454,-11.29084 -4.60153,-3.96 -8.77781,-7.2 -9.28062,-7.2 -1.56077,0 -13.13564,15.55784 -17.27075,23.21371 -7.16342,13.26257 -8.36856,23.35088 -3.6498,30.55262 2.13668,3.26099 9.30739,6.70255 16.7099,8.01986 6.70267,1.19276 22.47427,0.68502 32.39717,-1.04298 z m 167.05674,1.06382 c 21.69527,-3.47391 26.29276,-16.04525 14.11403,-38.59332 -4.13511,-7.65587 -15.70998,-23.21371 -17.27075,-23.21371 -0.50281,0 -4.67909,3.24 -9.28062,7.2 -4.60153,3.96 -10.88557,9.04088 -13.96454,11.29084 -3.07896,2.24997 -5.60691,4.40997 -5.61766,4.8 -0.0682,2.47489 -3.33324,23.25479 -4.58344,29.17062 l -1.50639,7.12814 7.05469,1.11524 c 15.30121,2.4189 21.46527,2.63767 31.05468,1.10219 z M 246.39999,338.20366 c 0,-0.65667 -15.25146,-9.59475 -16.37197,-9.59475 -0.34526,0 -0.43116,0.6 -0.19088,1.33334 0.24028,0.73333 0.96863,4.04223 1.61857,7.35312 l 1.18171,6.01979 6.88128,-2.23727 c 3.78471,-1.2305 6.88129,-2.5239 6.88129,-2.87423 z m 68.64335,-2.45724 c 0.82288,-3.92563 1.2572,-7.13751 0.96517,-7.13751 -1.06661,0 -16.27519,8.97726 -16.27519,9.60685 0,0.58865 13.00826,5.22017 13.5736,4.8328 0.13215,-0.0906 0.91354,-3.37651 1.73642,-7.30214 z m -29.26883,-15.2419 c 6.21068,-3.28408 16.38548,-9.14123 22.61068,-13.0159 l 11.31855,-7.04485 0.72065,-13.65076 c 0.39636,-7.50792 0.39636,-19.7936 0,-27.30152 l -0.72065,-13.65076 -11.42348,-7.11623 c -6.28291,-3.91392 -16.77625,-9.89108 -23.31854,-13.28257 l -11.89507,-6.16634 -11.89507,6.16634 c -6.54229,3.39149 -17.03563,9.36865 -23.31854,13.28257 l -11.42348,7.11623 -0.72065,13.65076 c -0.39636,7.50792 -0.39636,19.7936 0,27.30152 l 0.72065,13.65076 11.31855,7.04161 c 13.43456,8.35804 33.10144,18.95123 35.2264,18.97402 0.82932,0.009 6.58932,-2.67079 12.8,-5.95488 z m -20.09845,-20.80835 c -8.36125,-2.54613 -16.07759,-10.21608 -19.09453,-18.97976 -3.17672,-9.22781 -0.28654,-20.37075 7.23433,-27.89162 11.29124,-11.29124 28.28763,-11.28062 39.59297,0.0247 17.11277,17.11276 6.13305,46.0107 -18.07531,47.57309 -3.30011,0.21298 -7.64597,-0.11391 -9.65746,-0.72644 z m 12.52279,-22.32881 c 2.91162,-2.71258 2.99685,-6.76273 0.20113,-9.55844 -4.20895,-4.20895 -11.73333,-1.15745 -11.73333,4.75844 0,3.15627 3.79587,6.97489 6.93333,6.97489 1.24542,0 3.31492,-0.9787 4.59887,-2.17489 z m -74.67375,-9.18221 -0.32511,-4.9571 -5.33334,4.9571 -5.33333,4.9571 5.33333,4.9571 5.33334,4.9571 0.32511,-4.9571 c 0.17881,-2.72641 0.17881,-7.18779 0,-9.9142 z m 147.32748,7.72805 2.58594,-2.77095 -2.58594,-2.77095 c -1.42226,-1.52402 -3.90593,-3.71671 -5.51927,-4.87263 l -2.93333,-2.10169 v 9.74527 9.74527 l 2.93333,-2.10168 c 1.61334,-1.15593 4.09701,-3.34861 5.51927,-4.87264 z M 186.304,249.94225 c 4.60153,-3.96 10.88557,-9.04088 13.96454,-11.29084 3.07896,-2.24997 5.60691,-4.40997 5.61766,-4.8 0.0682,-2.47489 3.33324,-23.25479 4.58344,-29.17062 l 1.50639,-7.12814 -7.05469,-1.09588 c -19.0764,-2.96332 -33.48293,-2.22748 -42.57665,2.17469 -11.19668,5.42019 -12.09824,17.69704 -2.59206,35.29708 4.13511,7.65587 15.70998,23.21371 17.27075,23.21371 0.50281,0 4.67909,-3.24 9.28062,-7.2 z m 189.93252,-0.76718 c 19.02842,-24.40324 21.89668,-43.59956 7.55209,-50.54361 -9.09372,-4.40217 -23.50024,-5.13801 -42.57665,-2.17469 l -7.05469,1.09588 1.50639,7.12814 c 1.2502,5.91583 4.51525,26.69573 4.58344,29.17062 0.0108,0.39003 2.5387,2.55003 5.61766,4.8 3.07897,2.24996 9.36301,7.33084 13.96454,11.29084 4.60153,3.96 8.77781,7.2 9.28062,7.2 0.50281,0 3.70978,-3.58523 7.1266,-7.96718 z M 238.45023,213.31251 c 4.37237,-2.3997 7.94976,-4.70183 7.94976,-5.11585 0,-0.41403 -3.09658,-1.75955 -6.88129,-2.99005 l -6.88128,-2.23727 -1.18171,6.01979 c -0.64994,3.31089 -1.37829,6.61979 -1.61857,7.35312 -0.63754,1.94581 -0.12254,1.76465 8.61309,-3.02974 z m 77.84593,3.02974 c -0.24027,-0.73333 -0.96863,-4.04223 -1.61857,-7.35312 l -1.18171,-6.01979 -6.88128,2.23727 c -3.78471,1.2305 -6.88128,2.5749 -6.88128,2.98756 0,0.74938 14.78232,9.33836 16.23318,9.43196 0.42159,0.0272 0.56994,-0.55054 0.32966,-1.28388 z m -32.4202,-25.19024 c 5.49488,-2.26796 13.17655,-5.16908 17.07038,-6.44693 l 7.07969,-2.32336 -2.10706,-5.55307 c -9.69204,-25.54305 -21.39988,-39.6864 -32.85232,-39.6864 -11.33792,0 -23.43326,14.60343 -32.86996,39.68587 l -2.08901,5.55253 8.25019,2.74757 c 4.53761,1.51116 12.04338,4.38061 16.67949,6.37654 4.63611,1.99594 8.97348,3.66089 9.6386,3.6999 0.66512,0.039 5.70512,-1.78469 11.2,-4.05265 z M 443.57978,20.858098 c -3.32647,-1.807115 -5.35389,-6.845432 -4.49091,-11.1603265 1.56285,-7.814263 12.0334,-10.807401 17.11994,-4.89395 2.74833,3.195134 3.34364,10.5629965 1.09057,13.4975405 -3.19616,4.162886 -8.83033,5.21285 -13.7196,2.556736 z"
       id="path1" />
  </g>
</svg>
