<?xml version="1.0" encoding="UTF-8" standalone="no"?>
<!-- Created with Inkscape (http://www.inkscape.org/) -->

<svg
   version="1.1"
   id="svg1"
   width="512"
   height="512"
   viewBox="0 0 512 512"
   sodipodi:docname="metal.png"
   inkscape:export-filename="../Documents/personal/rgbdesign/public/images/icons/material.png"
   inkscape:export-xdpi="96"
   inkscape:export-ydpi="96"
   xmlns:inkscape="http://www.inkscape.org/namespaces/inkscape"
   xmlns:sodipodi="http://sodipodi.sourceforge.net/DTD/sodipodi-0.dtd"
   xmlns="http://www.w3.org/2000/svg"
   xmlns:svg="http://www.w3.org/2000/svg">
  <defs
     id="defs1" />
  <sodipodi:namedview
     id="namedview1"
     pagecolor="#505050"
     bordercolor="#eeeeee"
     borderopacity="1"
     inkscape:showpageshadow="0"
     inkscape:pageopacity="0"
     inkscape:pagecheckerboard="0"
     inkscape:deskcolor="#505050" />
  <g
     inkscape:groupmode="layer"
     inkscape:label="Image"
     id="g1">
    <path
       style="fill:#ed2024;fill-opacity:1"
       d="m 12.590891,507.93418 c -4.7652402,-2.16426 -8.0026302,-5.92228 -9.4667002,-10.98907 -0.71142,-2.46206 -0.95043,-52.26344 -0.74958,-156.18777 l 0.29488,-152.57317 2.66076,-4.02054 c 5.1251002,-7.74427 5.4148502,-7.79331 48.0892402,-8.1383 l 37.75,-0.30518 v -37.1291 c 0,-35.79215 0.0764,-37.28687 2.12115,-41.510799 1.27694,-2.63781 3.73461,-5.44994 6.17512,-7.06573 l 4.053969,-2.68401 38.2699,-0.29431 38.2699,-0.294303 0.30498,-37.705691 c 0.34477,-42.6247502 0.39487,-42.9205302 8.1381,-48.04494015 l 4.02054,-2.66076005 152.57317,-0.29487 c 103.92433,-0.20086 153.72571,0.0382 156.18777,0.74957 5.06679,1.46407005 8.82481,4.70147 10.98907,9.4667 1.7571,3.8687502 1.85354,8.5453502 1.87437,90.8943442 0.0221,87.268389 -0.0676,89.708699 -3.37774,91.918949 -2.25099,1.50302 -7.60919,0.77778 -9.36009,-1.2669 -1.61624,-1.88745 -1.77583,-8.24529 -2.24021,-89.25 l -0.5,-87.217793 -150.93898,-0.25325 c -120.09104,-0.20149 -151.10159,0.003 -151.73468,1 -0.43764,0.68929 -0.80261,17.32728 -0.81103,36.97331 l -0.0153,35.720065 44.39588,0.279939 c 42.0373,0.26507 44.50766,0.38114 46.5,2.18493 2.74588,2.486 2.79908,7.90004 0.10412,10.59501 -1.9695,1.969499 -3.33333,1.999999 -89.41821,1.999999 -48.08002,0 -88.13002,0.27314 -89,0.60699 -1.40227,0.5381 -1.58179,4.73492 -1.58179,36.97837 v 36.37139 l 108.25,0.27162 c 118.4077,0.29712 110.92846,-0.0838 116.37504,5.92662 5.11533,5.64485 4.85608,-0.17792 5.14659,115.59501 l 0.27162,108.25 h 36.37139 c 32.24345,0 36.44027,-0.17952 36.97837,-1.58179 0.33385,-0.86998 0.60699,-7.60245 0.60699,-14.96104 0,-12.47574 0.1478,-13.51695 2.18856,-15.41821 2.74846,-2.56058 6.8825,-2.61248 9.95066,-0.12491 2.30738,1.87076 2.36078,2.28524 2.36078,18.32494 0,16.13139 -0.0457,16.47993 -2.68402,20.4648 -1.61575,2.44042 -4.42797,4.89815 -7.06572,6.17506 -4.22429,2.04494 -5.7176,2.12115 -41.56598,2.12115 H 336.1695 l -0.0245,35.25 c -0.014,20.17602 -0.45819,37.1316 -1.03875,39.65005 -1.37705,5.97365 -4.43596,9.96833 -9.33787,12.19452 -3.93991,1.78929 -10.01537,1.86151 -156.59893,1.86151 -146.315279,0 -152.665409,-0.0751 -156.578599,-1.85241 z m 53.16749,-16.1804 c -2.92487,-3.47601 -3.27548,-6.49801 -1.11222,-9.5865 2.01809,-2.88123 5.93749,-3.6974 9.28196,-1.93287 1.50775,0.79549 5.65337,4.40504 9.21248,8.02122 l 6.47111,6.57488 h 19.453209 19.4532 l -2.23785,-2.38208 c -3.28184,-3.49336 -3.12229,-8.3511 0.37303,-11.35766 4.0445,-3.47893 6.76486,-2.37584 15.53831,6.3007 l 7.52213,7.43904 h 19.91496 19.91497 l -2.68709,-2.80472 c -6.21606,-6.48816 0.24187,-15.92229 8.07154,-11.79138 1.50775,0.79549 5.65337,4.40504 9.21248,8.02122 l 6.47111,6.57488 h 19.45321 19.4532 l -2.23785,-2.38208 c -3.28184,-3.49336 -3.12229,-8.3511 0.37303,-11.35766 4.0445,-3.47893 6.76486,-2.37584 15.53831,6.3007 l 7.52213,7.43904 h 19.91496 19.91497 l -2.68709,-2.80472 c -3.10114,-3.2369 -3.45814,-7.06249 -0.93709,-10.04185 2.84359,-3.36055 6.30834,-3.60306 10.53151,-0.73714 l 3.71849,2.52344 v -19.1516 -19.15159 l -8,-8.19608 c -8.79184,-9.00734 -9.82545,-11.86846 -5.82569,-16.12601 2.6814,-2.85421 6.71029,-2.97966 10.09856,-0.31445 1.39842,1.1 2.80911,2 3.13486,2 0.32575,0 0.59227,-8.60498 0.59227,-19.12219 v -19.12218 l -8,-8.19609 c -8.53571,-8.74492 -9.62159,-11.42159 -6.25,-15.40611 2.84359,-3.36055 6.30834,-3.60306 10.53151,-0.73714 l 3.71849,2.52344 v -19.1516 -19.15159 l -8,-8.19608 c -8.79184,-9.00734 -9.82545,-11.86846 -5.82569,-16.12601 2.6814,-2.85421 6.71029,-2.97966 10.09856,-0.31445 1.39842,1.1 2.80911,2 3.13486,2 0.32575,0 0.59227,-8.3896 0.59227,-18.64355 V 264.5434 l -8,-8.33299 c -8.60846,-8.96677 -9.79227,-12.04023 -6.25,-16.22647 2.84359,-3.36055 6.30834,-3.60306 10.53151,-0.73714 l 3.71849,2.52344 v -24.26987 c 0,-17.54322 -0.33259,-24.60245 -1.2,-25.46986 -1.29837,-1.29837 -48.8,-1.81304 -48.8,-0.52874 0,0.36919 0.75,1.5 1.66667,2.5129 4.04138,4.46568 0.45466,12.14917 -5.67134,12.14917 -2.54617,0 -4.52563,-1.40157 -10.82768,-7.66666 l -7.7119,-7.66667 H 229.32927 210.0333 l 2.0681,2.90437 c 3.59455,5.04809 1.92346,11.16216 -3.41721,12.50258 -3.55256,0.89164 -6.96078,-1.18637 -14.48581,-8.83207 l -6.47111,-6.57488 h -18.77889 c -10.32839,0 -18.77889,0.30207 -18.77889,0.67126 0,0.36919 0.75,1.5 1.66667,2.5129 4.04138,4.46568 0.45466,12.14917 -5.67134,12.14917 -2.54617,0 -4.52563,-1.40157 -10.82768,-7.66666 l -7.7119,-7.66667 H 108.32927 89.033301 l 2.0681,2.90437 c 5.42283,7.61567 -1.51956,16.00978 -9.25384,11.18891 -1.74794,-1.08952 -5.86398,-4.70621 -9.14677,-8.03711 l -5.96869,-6.05617 h -18.78131 c -10.32971,0 -18.7813,0.30207 -18.7813,0.67126 0,0.36919 0.63994,1.38169 1.42209,2.25 2.78726,3.09429 2.89991,6.59287 0.30926,9.60467 -3.08269,3.58384 -7.71646,3.77614 -11.23949,0.46642 l -2.49186,-2.34098 v 19.90219 19.90219 l 7.43904,7.52213 c 8.67654,8.77345 9.77963,11.49381 6.3007,15.53831 -3.00656,3.49532 -7.8643,3.65487 -11.35766,0.37303 l -2.38208,-2.23785 v 19.4532 19.45321 l 6.57488,6.47111 c 3.61618,3.55911 7.22573,7.70473 8.02122,9.21248 4.13091,7.82967 -5.30321,14.2876 -11.79138,8.07154 l -2.80472,-2.68709 v 19.91497 19.91496 l 7.43904,7.52213 c 8.67654,8.77345 9.77963,11.49381 6.3007,15.53831 -3.00656,3.49532 -7.8643,3.65487 -11.35766,0.37303 l -2.38208,-2.23785 v 19.4532 19.45321 l 6.57488,6.47111 c 3.61618,3.55911 7.22573,7.70473 8.02122,9.21248 1.76453,3.34447 0.94836,7.26387 -1.93287,9.28196 -3.08849,2.16326 -6.11049,1.81265 -9.5865,-1.11222 l -3.07673,-2.5889 v 24.92223 c 0,13.70722 0.3,25.22223 0.66667,25.58889 0.36666,0.36667 11.88167,0.66667 25.58889,0.66667 h 24.92223 z m -30.58889,-14.92327 c -1.16539,-1.16539 -2,-3.33333 -2,-5.19512 0,-2.70958 1.48998,-4.6851 9.80488,-13 10.8357,-10.8357 13.25347,-11.83744 17.74058,-7.35033 4.4871,4.4871 3.48536,6.90487 -7.35034,17.74057 -8.3149,8.3149 -10.29042,9.80488 -13,9.80488 -1.86179,0 -4.02973,-0.83461 -5.19512,-2 z m 60.07258,-0.63486 c -2.44303,-3.10581 -2.55929,-4.52962 -0.66668,-8.1648 2.1719,-4.17164 16.895599,-17.98692 20.000019,-18.76608 4.11405,-1.03256 8.00429,2.20178 8.40898,6.9912 0.29718,3.51704 -0.21548,4.25717 -9.10897,13.15066 -8.37732,8.37732 -9.82017,9.42388 -12.99232,9.42388 -2.663979,0 -4.093769,-0.66784 -5.641029,-2.63486 z m 60.927419,0.63486 c -1.16539,-1.16539 -2,-3.33333 -2,-5.19512 0,-2.70958 1.48998,-4.6851 9.80488,-13 10.8357,-10.8357 13.25347,-11.83744 17.74057,-7.35033 4.48711,4.4871 3.48537,6.90487 -7.35033,17.74057 -8.3149,8.3149 -10.29042,9.80488 -13,9.80488 -1.86179,0 -4.02973,-0.83461 -5.19512,-2 z m 60.07258,-0.63486 c -2.44303,-3.10581 -2.55929,-4.52962 -0.66668,-8.1648 2.1719,-4.17164 16.8956,-17.98692 20.00002,-18.76608 4.11405,-1.03256 8.00429,2.20178 8.40898,6.9912 0.29718,3.51704 -0.21548,4.25717 -9.10897,13.15066 -8.37732,8.37732 -9.82017,9.42388 -12.99232,9.42388 -2.66398,0 -4.09377,-0.66784 -5.64103,-2.63486 z m 60.92742,0.63486 c -1.19505,-1.19505 -2,-3.33333 -2,-5.31282 0,-2.87144 1.31366,-4.60346 9.85992,-13 10.87176,-10.68128 13.26014,-11.65803 17.68553,-7.23263 4.48711,4.4871 3.48537,6.90487 -7.35033,17.74057 -8.3149,8.3149 -10.29042,9.80488 -13,9.80488 -1.86179,0 -4.02973,-0.83461 -5.19512,-2 z M 72.974371,439.02563 c -10.64533,-10.64532 -11.55197,-12.70434 -7.7323,-17.56026 1.44847,-1.84144 3.01286,-2.63486 5.19512,-2.63486 2.61775,0 4.70763,1.58508 12.92742,9.80488 8.2198,8.21979 9.80488,10.30967 9.80488,12.92742 0,2.18226 -0.79342,3.74665 -2.63486,5.19512 -4.85592,3.81967 -6.91494,2.91303 -17.56026,-7.7323 z m 61.456339,0.55488 c -5.20816,-5.0875 -9.81073,-10.14767 -10.22794,-11.24482 -0.98327,-2.58576 0.67049,-7.27628 3.00616,-8.52629 4.4346,-2.37332 6.99051,-1.18773 15.67519,7.27111 10.26599,9.99904 11.93792,12.76039 10.227,16.89091 -0.66876,1.61454 -2.02463,3.36833 -3.01304,3.89731 -3.99012,2.13545 -6.18532,0.97416 -15.66737,-8.28822 z m 59.54366,-0.55488 c -10.64533,-10.64532 -11.55197,-12.70434 -7.7323,-17.56026 1.44847,-1.84144 3.01286,-2.63486 5.19512,-2.63486 2.61775,0 4.70763,1.58508 12.92742,9.80488 10.8357,10.8357 11.83744,13.25347 7.35033,17.74057 -4.4871,4.48711 -6.90487,3.48537 -17.74057,-7.35033 z m 60.77198,-0.11797 c -8.6831,-8.7158 -9.87413,-10.32662 -9.79123,-13.2422 0.11443,-4.02465 3.17653,-6.83495 7.44734,-6.83495 2.41802,0 4.68703,1.62563 11.51516,8.25 9.98731,9.68928 12.0249,13.35445 9.80775,17.64193 -0.81505,1.57614 -2.21036,3.14524 -3.10068,3.48689 -4.17973,1.60391 -6.18253,0.43066 -15.87834,-9.30167 z M 35.804351,416.75793 c -1.96702,-1.54726 -2.63486,-2.97705 -2.63486,-5.64103 0,-3.17215 1.04656,-4.615 9.42388,-12.99232 8.89349,-8.89349 9.63362,-9.40615 13.15066,-9.10897 4.78942,0.40469 8.02376,4.29493 6.9912,8.40898 -0.77916,3.10442 -14.59444,17.82812 -18.76608,20.00002 -3.63518,1.89261 -5.05899,1.77635 -8.1648,-0.66668 z m 61.72922,0.90299 c -2.2218,-1.07582 -4.36408,-4.76609 -4.36408,-7.51754 0,-0.87616 4.35923,-6.02999 9.687179,-11.45295 8.39654,-8.54626 10.12856,-9.85992 13,-9.85992 4.31956,0 7.31282,2.99326 7.31282,7.31282 0,2.87144 -1.31366,4.60346 -9.85992,13 -9.84184,9.66941 -11.52285,10.577 -15.775999,8.51759 z m 59.270779,-0.90299 c -1.95821,-1.54033 -2.63486,-2.97989 -2.63486,-5.60563 0,-3.11656 1.10128,-4.64874 9.34197,-12.99721 8.89868,-9.01506 9.52271,-9.44898 13.15066,-9.14437 4.87336,0.40918 8.11449,4.26469 7.07311,8.41387 -0.77916,3.10442 -14.59444,17.82812 -18.76608,20.00002 -3.63518,1.89261 -5.05899,1.77635 -8.1648,-0.66668 z m 61.72922,0.90299 c -2.2218,-1.07582 -4.36408,-4.76609 -4.36408,-7.51754 0,-0.87616 4.35923,-6.02999 9.68718,-11.45295 8.39654,-8.54626 10.12856,-9.85992 13,-9.85992 4.26562,0 7.31282,2.99815 7.31282,7.19512 0,2.70958 -1.48998,4.6851 -9.80488,13 -9.84294,9.84295 -11.48601,10.73919 -15.83104,8.63529 z m 59.27078,-0.90299 c -1.97948,-1.55706 -2.63486,-2.97293 -2.63486,-5.69231 0,-3.23558 0.99498,-4.61471 9.37548,-12.99521 8.88332,-8.88332 9.57366,-9.3588 13.15066,-9.05769 4.7139,0.39681 8.07474,4.28754 7.09063,8.20857 -0.74484,2.96769 -11.30175,14.61318 -17.01681,18.77151 -4.64792,3.38187 -6.46143,3.52112 -9.9651,0.76513 z M 83.664311,387.79723 c -3.4956,-1.32925 -20.49482,-19.49212 -20.49482,-21.89776 0,-3.34061 1.61126,-5.6653 4.85909,-7.01059 4.13052,-1.71092 6.89187,-0.039 16.89091,10.227 8.45884,8.68468 9.64443,11.24059 7.27111,15.67519 -1.25001,2.33567 -5.94053,3.98943 -8.52629,3.00616 z m 61.005179,0.24877 c -1.1,-0.21343 -6.1625,-4.50284 -11.25,-9.53202 -8.27429,-8.17944 -9.25,-9.52526 -9.25,-12.75873 0,-4.41819 2.77406,-7.25807 7.08983,-7.25807 2.53902,0 4.70716,1.64314 12.65376,9.58974 7.9466,7.9466 9.58974,10.11474 9.58974,12.65376 0,4.92654 -4.00834,8.24151 -8.83333,7.30532 z m 60.5,0.0181 c -0.825,-0.25322 -5.8875,-4.78844 -11.25,-10.07826 -7.26239,-7.16397 -9.75,-10.26751 -9.75,-12.16411 0,-5.78076 5.66594,-9.25919 10.75863,-6.60493 1.50775,0.78583 6.45387,5.24039 10.99137,9.89903 8.45884,8.68468 9.64443,11.24059 7.27111,15.67519 -1.10709,2.06861 -5.75974,3.96716 -8.02111,3.27308 z m 49.16817,-9.56477 c -7.73571,-7.76801 -9.30775,-9.87338 -9.38437,-12.56811 -0.11894,-4.18324 3.04598,-7.43409 7.23757,-7.43409 2.62554,0 4.68442,1.55194 12.72222,9.58974 7.9466,7.9466 9.58974,10.11474 9.58974,12.65376 0,4.31577 -2.83988,7.08983 -7.25807,7.08983 -3.23086,0 -4.60163,-0.99099 -12.90709,-9.33113 z M 35.169491,355.83051 c -1.16539,-1.16539 -2,-3.33333 -2,-5.19512 0,-2.70958 1.48998,-4.6851 9.80488,-13 10.8357,-10.8357 13.25347,-11.83744 17.74058,-7.35033 4.4871,4.4871 3.48536,6.90487 -7.35034,17.74057 -8.3149,8.3149 -10.29042,9.80488 -13,9.80488 -1.86179,0 -4.02973,-0.83461 -5.19512,-2 z m 60.07258,-0.63486 c -2.44303,-3.10581 -2.55929,-4.52962 -0.66668,-8.1648 2.1719,-4.17164 16.895599,-17.98692 20.000019,-18.76608 4.14918,-1.04138 8.00469,2.19975 8.41387,7.07311 0.30461,3.62795 -0.12931,4.25198 -9.14437,13.15066 -8.34847,8.24069 -9.88065,9.34197 -12.99721,9.34197 -2.625739,0 -4.065299,-0.67665 -5.605629,-2.63486 z m 60.927419,0.63486 c -1.16539,-1.16539 -2,-3.33333 -2,-5.19512 0,-2.70958 1.48998,-4.6851 9.80488,-13 10.8357,-10.8357 13.25347,-11.83744 17.74057,-7.35033 4.48711,4.4871 3.48537,6.90487 -7.35033,17.74057 -8.3149,8.3149 -10.29042,9.80488 -13,9.80488 -1.86179,0 -4.02973,-0.83461 -5.19512,-2 z m 60.07258,-0.63486 c -2.44303,-3.10581 -2.55929,-4.52962 -0.66668,-8.1648 2.1719,-4.17164 16.8956,-17.98692 20.00002,-18.76608 4.11405,-1.03256 8.00429,2.20178 8.40898,6.9912 0.29718,3.51704 -0.21548,4.25717 -9.10897,13.15066 -8.37732,8.37732 -9.82017,9.42388 -12.99232,9.42388 -2.66398,0 -4.09377,-0.66784 -5.64103,-2.63486 z m 60.92742,0.63486 c -1.19505,-1.19505 -2,-3.33333 -2,-5.31282 0,-2.87144 1.31366,-4.60346 9.85992,-13 10.87176,-10.68128 13.26014,-11.65803 17.68553,-7.23263 4.48711,4.4871 3.48537,6.90487 -7.35033,17.74057 -8.3149,8.3149 -10.29042,9.80488 -13,9.80488 -1.86179,0 -4.02973,-0.83461 -5.19512,-2 z M 72.974371,318.02563 c -10.64533,-10.64532 -11.55197,-12.70434 -7.7323,-17.56026 1.44847,-1.84144 3.01286,-2.63486 5.19512,-2.63486 2.61775,0 4.70763,1.58508 12.92742,9.80488 8.2198,8.21979 9.80488,10.30967 9.80488,12.92742 0,2.18226 -0.79342,3.74665 -2.63486,5.19512 -4.85592,3.81967 -6.91494,2.91303 -17.56026,-7.7323 z m 60.998769,0.0549 c -5.31236,-5.3625 -9.74474,-10.425 -9.84973,-11.25 -0.66828,-5.25131 2.31745,-9 7.16827,-9 2.55948,0 4.64875,1.48687 11.59244,8.25 10.26599,9.99904 11.93792,12.76039 10.227,16.89091 -0.66876,1.61454 -2.02463,3.36833 -3.01304,3.89731 -4.20273,2.24923 -6.35008,1.07891 -16.12494,-8.78822 z m 60.00123,-0.0549 c -10.64533,-10.64532 -11.55197,-12.70434 -7.7323,-17.56026 1.44847,-1.84144 3.01286,-2.63486 5.19512,-2.63486 2.61775,0 4.70763,1.58508 12.92742,9.80488 10.8357,10.8357 11.83744,13.25347 7.35033,17.74057 -4.4871,4.48711 -6.90487,3.48537 -17.74057,-7.35033 z m 60.99877,0.0549 c -5.31236,-5.3625 -9.74474,-10.425 -9.84973,-11.25 -0.66194,-5.20149 2.32181,-9 7.06954,-9 2.42388,0 4.73251,1.63605 11.64156,8.25 10.05353,9.62412 12.12572,13.3202 9.89086,17.64193 -0.81505,1.57614 -2.21036,3.14524 -3.10068,3.48689 -4.17607,1.60251 -6.1763,0.43587 -15.65155,-9.12882 z M 35.804351,295.75793 c -1.88944,-1.48624 -2.63486,-3.00028 -2.63486,-5.35176 0,-2.79322 1.40648,-4.71804 9.49071,-12.98834 8.9472,-9.15315 9.70029,-9.69135 13.15065,-9.39824 4.72102,0.40106 7.94964,4.32005 6.92438,8.405 -0.77916,3.10442 -14.59444,17.82812 -18.76608,20.00002 -3.63518,1.89261 -5.05899,1.77635 -8.1648,-0.66668 z m 61.68632,0.88385 c -2.6152,-1.26435 -4.73698,-5.92584 -3.89902,-8.56603 0.33206,-1.04621 4.8123,-6.02938 9.956089,-11.07372 7.77278,-7.6225 9.88178,-9.17152 12.48705,-9.17152 4.13409,0 7.1347,3.07552 7.1347,7.31282 0,2.87144 -1.31366,4.60346 -9.85992,13 -9.86253,9.68974 -11.51668,10.5784 -15.818899,8.49845 z m 59.313679,-0.88385 c -1.96702,-1.54726 -2.63486,-2.97705 -2.63486,-5.64103 0,-3.17215 1.04656,-4.615 9.42388,-12.99232 8.89349,-8.89349 9.63362,-9.40615 13.15066,-9.10897 4.78942,0.40469 8.02376,4.29493 6.9912,8.40898 -0.77916,3.10442 -14.59444,17.82812 -18.76608,20.00002 -3.63518,1.89261 -5.05899,1.77635 -8.1648,-0.66668 z m 61.6006,1.03604 c -2.21866,-0.89133 -4.23546,-4.54292 -4.23546,-7.66864 0,-0.86623 4.35923,-6.01194 9.68718,-11.4349 8.39654,-8.54626 10.12856,-9.85992 13,-9.85992 4.26562,0 7.31282,2.99815 7.31282,7.19512 0,2.70958 -1.48998,4.6851 -9.80488,13 -9.81677,9.81677 -11.30911,10.63668 -15.95966,8.76834 z m 59.3994,-1.03604 c -1.95821,-1.54033 -2.63486,-2.97989 -2.63486,-5.60563 0,-3.11656 1.10128,-4.64874 9.34197,-12.99721 8.89868,-9.01506 9.52271,-9.44898 13.15066,-9.14437 4.87336,0.40918 8.11449,4.26469 7.07311,8.41387 -0.77916,3.10442 -14.59444,17.82812 -18.76608,20.00002 -3.63518,1.89261 -5.05899,1.77635 -8.1648,-0.66668 z M 84.169491,267.06415 c -0.825,-0.25322 -5.8875,-4.78844 -11.25,-10.07826 -9.87019,-9.73642 -11.03976,-11.87693 -8.78822,-16.08397 0.52898,-0.98841 2.28277,-2.34428 3.89731,-3.01304 4.13052,-1.71092 6.89187,-0.039 16.89091,10.227 8.45884,8.68468 9.64443,11.24059 7.27111,15.67519 -1.10709,2.06861 -5.75974,3.96716 -8.02111,3.27308 z m 60.499999,-0.0181 c -1.1,-0.21343 -6.1625,-4.50284 -11.25,-9.53202 -8.27429,-8.17944 -9.25,-9.52526 -9.25,-12.75873 0,-4.41819 2.77406,-7.25807 7.08983,-7.25807 2.53902,0 4.70716,1.64314 12.65376,9.58974 7.9466,7.9466 9.58974,10.11474 9.58974,12.65376 0,4.92654 -4.00834,8.24151 -8.83333,7.30532 z m 60.5,0.0181 c -0.825,-0.25322 -5.8875,-4.78844 -11.25,-10.07826 -9.87019,-9.73642 -11.03976,-11.87693 -8.78822,-16.08397 0.52898,-0.98841 2.28277,-2.34428 3.89731,-3.01304 4.16612,-1.72567 7.01333,0.0126 16.91617,10.32764 8.3945,8.7439 9.56036,11.24985 7.24585,15.57455 -1.10709,2.06861 -5.75974,3.96716 -8.02111,3.27308 z m 59.5,-0.21913 c -1.1,-0.46205 -6.0125,-4.90108 -10.91667,-9.86452 -7.3866,-7.47588 -8.91666,-9.55953 -8.91666,-12.14277 0,-4.06971 3.27714,-7.34055 7.3547,-7.34055 2.62554,0 4.68442,1.55194 12.72222,9.58974 8.0378,8.0378 9.58974,10.09668 9.58974,12.72222 0,5.03264 -5.40144,8.89745 -9.83333,7.03588 z M 35.169491,234.83051 c -1.16539,-1.16539 -2,-3.33333 -2,-5.19512 0,-2.70958 1.48998,-4.6851 9.80488,-13 10.8357,-10.8357 13.25347,-11.83744 17.74058,-7.35033 4.42539,4.42539 3.44864,6.81377 -7.23264,17.68553 -8.39654,8.54626 -10.12856,9.85992 -13,9.85992 -1.97949,0 -4.11777,-0.80495 -5.31282,-2 z m 60.07258,-0.63486 c -1.13992,-1.44917 -2.07258,-3.4468 -2.07258,-4.43918 0,-3.54205 17.222019,-21.44161 21.714959,-22.56927 3.80996,-0.95624 7.71171,2.4709 8.10283,7.11717 0.30111,3.577 -0.17437,4.26734 -9.05769,13.15066 -8.3805,8.3805 -9.75963,9.37548 -12.99521,9.37548 -2.719379,0 -4.135249,-0.65538 -5.692309,-2.63486 z m 60.927419,0.63486 c -1.16539,-1.16539 -2,-3.33333 -2,-5.19512 0,-2.70958 1.48998,-4.6851 9.80488,-13 10.8357,-10.8357 13.25347,-11.83744 17.74057,-7.35033 4.48711,4.4871 3.48537,6.90487 -7.35033,17.74057 -8.3149,8.3149 -10.29042,9.80488 -13,9.80488 -1.86179,0 -4.02973,-0.83461 -5.19512,-2 z m 60.07258,-0.63486 c -2.44303,-3.10581 -2.55929,-4.52962 -0.66668,-8.1648 2.1719,-4.17164 16.8956,-17.98692 20.00002,-18.76608 4.11405,-1.03256 8.00429,2.20178 8.40898,6.9912 0.29718,3.51704 -0.21548,4.25717 -9.10897,13.15066 -8.37732,8.37732 -9.82017,9.42388 -12.99232,9.42388 -2.66398,0 -4.09377,-0.66784 -5.64103,-2.63486 z m 60.92742,0.63486 c -1.16539,-1.16539 -2,-3.33333 -2,-5.19512 0,-2.70958 1.48998,-4.6851 9.80488,-13 10.8357,-10.8357 13.25347,-11.83744 17.74057,-7.35033 4.48711,4.4871 3.48537,6.90487 -7.35033,17.74057 -8.3149,8.3149 -10.29042,9.80488 -13,9.80488 -1.86179,0 -4.02973,-0.83461 -5.19512,-2 z m 138.2588,118.21333 c -5.5318,-0.86419 -5.2588,5.71499 -5.2588,-126.73584 0,-93.61582 -0.27977,-122.35726 -1.2,-123.27749 -0.90021,-0.90021 -13.26667,-1.2 -49.5,-1.2 -46.96667,0 -48.35521,-0.0552 -50.3,-1.999999 -2.52686,-2.52686 -2.56679,-7.07827 -0.0889,-10.13922 l 1.91102,-2.36078 47.33894,-0.31518 c 32.07143,-0.213526 48.99269,0.0427 52.46661,0.79434 6.50694,1.40796 11.7056,6.31593 13.26975,12.527749 0.76898,3.0539 1.10258,36.46742 1.10258,110.43591 v 106.05718 h 35.41821 c 19.48002,0 36.13002,-0.27314 37,-0.60699 1.41306,-0.54224 1.58179,-5.9147 1.58179,-50.36514 0,-48.82479 0.0389,-49.80758 2.07258,-52.39301 2.87852,-3.65944 7.98844,-3.64404 10.88063,0.0328 2.0781,2.64187 2.09571,3.16675 1.82258,54.32401 l -0.27579,51.65638 -2.66076,4.01969 c -5.12404,7.74104 -5.42764,7.79252 -47.98887,8.137 l -37.64963,0.30472 -0.35037,8.341 c -0.44638,10.62662 -2.84402,13.81701 -9.59157,12.76288 z"
       id="path1" />
  </g>
</svg>
