<?xml version="1.0" encoding="UTF-8" standalone="no"?>
<!-- Created with Inkscape (http://www.inkscape.org/) -->

<svg
   version="1.1"
   id="svg1"
   width="546.1333"
   height="546.1333"
   viewBox="0 0 546.1333 546.1333"
   sodipodi:docname="artificial-intelligence.png"
   inkscape:export-filename="../Documents/personal/rgbdesign/public/images/icons/natural_intelligence.svg"
   inkscape:export-xdpi="96"
   inkscape:export-ydpi="96"
   xmlns:inkscape="http://www.inkscape.org/namespaces/inkscape"
   xmlns:sodipodi="http://sodipodi.sourceforge.net/DTD/sodipodi-0.dtd"
   xmlns="http://www.w3.org/2000/svg"
   xmlns:svg="http://www.w3.org/2000/svg">
  <defs
     id="defs1" />
  <sodipodi:namedview
     id="namedview1"
     pagecolor="#505050"
     bordercolor="#eeeeee"
     borderopacity="1"
     inkscape:showpageshadow="0"
     inkscape:pageopacity="0"
     inkscape:pagecheckerboard="0"
     inkscape:deskcolor="#505050" />
  <g
     inkscape:groupmode="layer"
     inkscape:label="Image"
     id="g1">
    <path
       style="fill:#6e89d7;fill-opacity:1"
       d="m 245.75774,545.33736 c -5.85007,-0.77591 -14.74678,-3.66695 -21.0029,-6.82503 -7.84129,-3.95827 -20.03192,-15.41017 -24.8536,-23.34752 l -3.7173,-6.11932 -9.34643,-0.58141 c -5.14054,-0.31978 -12.46643,-1.57399 -16.27976,-2.78713 -24.59938,-7.82584 -43.5526,-30.73165 -46.55314,-56.26153 l -0.67391,-5.73399 h -8.91981 c -10.3643,0 -13.18647,-1.67679 -13.18647,-7.83468 0,-5.74023 2.60225,-7.19369 14.60484,-8.15739 11.73394,-0.94212 19.12513,-3.35496 27.683,-9.03706 6.46978,-4.2957 11.05971,-4.82332 14.24549,-1.63754 5.33929,5.3393 1.31117,11.81738 -11.45114,18.41586 l -6.6743,3.45081 -0.004,4.87306 c -0.009,11.20042 6.63761,25.58032 15.91319,34.42773 19.30001,18.40909 48.7521,19.57586 69.12757,2.73855 3.46748,-2.86536 6.08351,-4.17268 8.3498,-4.17268 4.01731,0 7.93882,3.79145 7.93882,7.67551 0,4.62771 -10.42438,13.44275 -21.89699,18.51648 -3.20999,1.41961 -5.83634,2.90185 -5.83634,3.29388 0,0.39202 1.20489,2.29245 2.67753,4.22318 17.54095,22.99738 49.69925,26.19921 71.00907,7.07 4.73707,-4.25233 11.64673,-13.3661 11.64673,-15.36192 0,-0.48609 -3.12,-0.8838 -6.93333,-0.8838 -8.22197,0 -11.2,-2.0832 -11.2,-7.83468 0,-5.81372 2.94365,-7.56707 13.44456,-8.00811 l 8.95544,-0.37612 v -29.22387 -29.22388 h -13.16381 c -14.56042,0 -21.07181,1.39764 -26.77401,5.74692 -4.06588,3.1012 -9.12885,12.42551 -9.12885,16.81232 0,7.05297 -5.30702,11.68126 -10.93901,9.53999 -5.30433,-2.01671 -6.39537,-7.94872 -3.36685,-18.30563 3.58474,-12.25905 12.65263,-22.04231 24.70364,-26.65254 5.01646,-1.91909 9.10251,-2.44565 22.40222,-2.88692 l 16.26667,-0.53971 V 355.53864 300.7481 h -65.67013 c -44.24957,0 -66.35976,-0.36908 -67.78438,-1.13152 -5.11616,-2.73808 -4.63521,-11.19756 0.7768,-13.66344 1.87321,-0.8535 21.61176,-1.20504 67.66123,-1.20504 h 65.01648 v -67.2 -67.2 h -32.92108 c -18.10659,0 -35.47147,-0.48367 -38.58862,-1.07483 -7.48893,-1.42024 -15.62291,-5.22792 -20.72054,-9.69969 -11.58616,-10.16368 -18.33665,-31.0562 -11.96768,-37.03954 5.64523,-5.303416 11.99763,-1.79416 13.48372,7.44883 1.65939,10.32081 6.44331,17.29621 14.98087,21.84346 3.39219,1.80674 7.02288,2.01762 39.73333,2.30782 l 36,0.31938 V 107.73415 81.014776 h -8.07013 c -11.03148,0 -14.29721,-1.827337 -14.29721,-8 0,-6.172663 3.26573,-7.999999 14.29721,-7.999999 h 8.07013 v -4.171633 c 0,-5.842646 -3.42455,-16.195936 -7.413,-22.411396 -7.4092,-11.54623 -19.96829,-19.50595 -34.26993,-21.71963 -15.59935,-2.41456 -30.219,2.79475 -41.40627,14.75398 -3.58094,3.82803 -6.48174,7.5425 -6.44621,8.25437 0.0355,0.71187 3.88045,3.12421 8.54429,5.36075 17.91491,8.591081 30.92888,25.225395 35.62348,45.533557 2.97324,12.861755 1.92844,19.396545 -3.42668,21.432555 -6.00877,2.28453 -10.93901,-2.50305 -10.93901,-10.62248 0,-9.477047 -5.71998,-22.505895 -13.69519,-31.194603 -20.54345,-22.381379 -55.53284,-22.381379 -76.07629,0 -9.56553,10.42131 -13.69518,21.58858 -13.69518,37.034043 0,9.46888 -0.11607,9.95361 -2.90957,12.15098 -1.93926,1.52541 -3.80681,2.09951 -5.6,1.72148 -13.4956,-2.84505 -20.02469,-3.14197 -27.84456,-1.26627 -20.272805,4.86271 -34.7725,18.91576 -39.92417,38.69436 -1.89351,7.26968 -2.01842,14.17357 -0.39559,21.86409 0.65603,3.10888 1.31471,5.79118 1.46373,5.96067 0.14902,0.1695 3.81227,-0.69541 8.140555,-1.92201 4.328283,-1.22661 12.322764,-2.51659 17.765514,-2.86664 9.333351,-0.60026 10.045841,-0.49559 12.533331,1.84129 6.54277,6.14661 0.82407,13.83919 -10.288114,13.83919 -7.598297,0 -19.397952,3.25938 -29.207786,8.06798 -26.24,12.86235 -42.13334,38.54337 -42.13334,68.08057 0,23.02672 12.01432,46.80249 30.58112,60.51858 l 5.6915,4.20456 6.66369,-7.1413 c 7.889654,-8.45514 16.446502,-14.26372 21.012451,-14.26372 4.079516,0 7.517905,3.32171 7.517905,7.2628 0,3.7039 -1.347352,5.42258 -7.466666,9.52448 -14.057202,9.42281 -23.4975,26.47917 -23.4509,42.37016 0.0325,11.0805 3.45999,21.11441 11.073142,32.41641 4.436686,6.58642 4.679296,8.41041 1.633673,12.2823 -3.220374,4.09404 -8.128115,3.83451 -12.408165,-0.65616 C 49.64673,406.9112 43.13723,382.50032 47.2101,364.21476 c 0.91471,-4.10666 1.96002,-8.47749 2.32292,-9.71294 0.54312,-1.84898 -0.53423,-3.10034 -6.09106,-7.07492 C 31.86236,339.14446 21.81822,327.42452 15.38666,314.69077 8.9784104,302.00315 6.4653304,292.22747 5.6325704,276.7481 4.5746204,257.08298 10.09243,237.55773 21.3856,221.00473 c 5.13824,-7.5314 15.55683,-18.0841 22.58392,-22.87462 4.64811,-3.16871 6.03462,-4.68117 5.50804,-6.00835 -2.43121,-6.12753 -3.88218,-17.44511 -3.31635,-25.86751 1.1156,-16.60582 7.64249,-31.1587 19.32988,-43.09943 12.828245,-13.10632 28.850295,-19.92531 47.19999,-20.08835 l 10.93334,-0.0971 0.0158,-3.24395 c 0.0281,-5.775813 3.18335,-16.884924 7.121,-25.071638 2.97935,-6.194313 5.90989,-10.041991 13.02062,-17.095536 12.98898,-12.884528 25.53968,-18.628028 43.59581,-19.950468 l 8.81986,-0.64598 3.71053,-6.10818 c 4.80315,-7.90684 17.00384,-19.37743 24.79107,-23.3075595 19.06931,-9.62406 39.94637,-9.8046 58.92534,-0.50957 19.52339,9.5616595 35.11397,33.2438095 35.18423,53.4449855 l 0.0158,4.533333 h 9.6264 c 9.23186,0 9.66709,-0.107009 10.61907,-2.610904 0.54596,-1.435998 2.81408,-4.6329 5.04026,-7.104227 12.63134,-14.022288 35.32177,-10.858558 43.60926,6.080455 6.9123,14.12824 1.45205,29.494107 -12.89499,36.288211 -13.25369,6.276338 -30.16341,-0.0066 -35.64686,-13.244781 l -1.41195,-3.408755 h -9.47059 -9.4706 v 26.708614 26.70861 l 34.66333,-0.30862 34.66333,-0.30861 14.93454,-14.93589 14.93455,-14.93589 -2.13121,-5.608878 c -4.21226,-11.085769 -1.52861,-22.423378 7.16199,-30.257266 5.26121,-4.742567 10.7338,-6.709349 18.44013,-6.62716 23.89343,0.254827 35.25582,29.166813 18.06699,45.972074 -1.89062,1.84843 -5.16913,4.18853 -7.28557,5.20023 -4.77539,2.28272 -13.89077,3.13825 -18.03697,1.69288 -3.03537,-1.05814 -3.53555,-0.66756 -18.99761,14.83479 -10.52156,10.54897 -17.66054,16.81186 -21.15627,18.55999 l -5.2761,2.63845 h -34.99056 -34.99057 v 16.53333 16.53334 l 45.6,0.0234 c 53.95796,0.0277 49.67231,-0.90908 64.98395,14.20489 9.61926,9.49508 10.08208,10.1606 9.75715,14.03049 -0.41257,4.9138 -4.57547,8.65422 -8.51491,7.65076 -1.37107,-0.34924 -7.17741,-4.97176 -12.90298,-10.27227 l -10.41012,-9.6373 h -44.25654 -44.25655 v 22.93334 22.93333 h 10.11166 10.11165 l 2.09217,-4.10099 c 2.49206,-4.88483 8.61141,-10.49283 13.82798,-12.67245 2.0709,-0.86527 6.46524,-1.57323 9.76521,-1.57323 24.55897,0 36.44189,28.63201 19.086,45.9879 -4.92282,4.92283 -9.19289,6.75298 -17.07106,7.31666 -11.13522,0.79672 -20.44739,-4.34208 -25.61339,-14.13441 l -2.57688,-4.88457 -9.6,0.29722 -9.6,0.29721 -0.28381,29.06667 -0.28381,29.06666 h 42.03484 42.03484 l 0.60954,-2.42861 c 0.93359,-3.71974 7.88958,-11.25926 12.60929,-13.66707 17.64675,-9.0027 39.38626,4.02203 39.23228,23.50511 -0.0856,10.82764 -4.75853,19.03347 -13.54856,23.79166 -11.40917,6.17596 -23.32075,4.5177 -32.34075,-4.50231 -2.84656,-2.84655 -5.48747,-6.41828 -5.86868,-7.93717 l -0.69312,-2.76161 h -42.0177 -42.0177 v 26.66667 26.66666 h 35.12812 c 33.56548,0 35.15671,-0.0901 35.77086,-2.0251 2.41078,-7.59568 12.05424,-15.00839 21.59504,-16.59961 10.13737,-1.69072 22.5905,4.89487 27.36189,14.46979 6.63348,13.31167 1.48839,29.51358 -11.58925,36.49455 -6.04776,3.22836 -18.50415,3.21074 -24.63432,-0.0349 -5.05572,-2.67672 -10.8579,-8.8948 -12.3835,-13.27115 l -1.05753,-3.03363 h -35.09565 -35.09566 v 21.33333 21.33333 h 21.69714 c 29.04538,0 28.86414,-0.0604 43.45472,14.48493 l 11.40445,11.36909 6.05596,-1.04336 c 19.0482,-3.28176 33.69926,9.52721 32.35689,28.28862 -1.03342,14.44332 -11.99765,24.70153 -26.43583,24.73354 -10.5367,0.0234 -21.19083,-7.05878 -25.25621,-16.78862 -2.05175,-4.91053 -1.97398,-14.96402 0.15519,-20.05982 l 1.7365,-4.15604 -10.55326,-10.41417 -10.55326,-10.41417 h -22.03114 -22.03115 l -0.0158,13.06667 c -0.0276,22.87134 -5.02611,35.97345 -19.06129,49.96347 -14.66238,14.61522 -33.61798,21.06105 -53.98961,18.35913 z m 168.37637,-37.72304 c 2.99056,-2.35238 4.84681,-7.49487 4.10538,-11.3734 -0.60367,-3.15788 -4.95755,-7.39785 -8.24118,-8.02555 -4.10123,-0.784 -7.68366,0.26671 -10.49512,3.07818 -6.83557,6.83556 -1.87987,18.52121 7.85454,18.52121 2.40428,0 5.08606,-0.87084 6.77638,-2.20044 z m 6.04497,-100.74393 c 7.89081,-4.0805 7.44676,-15.32054 -0.7591,-19.21447 -4.46732,-2.11988 -8.81604,-1.32978 -12.39843,2.2526 -4.92722,4.92722 -4.09576,12.93594 1.71054,16.47622 4.11548,2.50933 7.27445,2.64335 11.44699,0.48565 z m 13.26965,-69.37369 c 7.99351,-3.79317 7.90169,-15.43727 -0.15421,-19.55709 -8.33839,-4.26429 -18.17953,4.3929 -15.21269,13.38252 1.27125,3.85192 6.2942,7.81466 9.9147,7.82198 1.08467,0.002 3.53816,-0.73914 5.4522,-1.64741 z m -61.48926,-75.67878 c 3.8471,-3.23712 4.94608,-7.04655 3.39165,-11.75652 -1.95044,-5.9099 -8.59036,-8.87337 -14.42205,-6.43674 -7.55023,3.15469 -9.34338,11.85396 -3.62262,17.57473 4.27326,4.27325 10.02127,4.51589 14.65302,0.61853 z M 447.77295,96.417142 c 6.38886,-5.375874 4.95544,-15.002406 -2.71087,-18.205596 -9.63903,-4.027442 -18.88628,6.337592 -13.81581,15.48582 3.2272,5.822561 11.26685,7.145634 16.52668,2.719776 z M 370.87172,81.568997 c 3.95302,-3.32625 5.02529,-8.16204 2.83383,-12.780197 -5.06482,-10.673325 -20.74781,-6.983455 -20.74781,4.881514 0,9.127755 10.79608,13.887996 17.91398,7.898683 z M 473.83922,481.9773 c -12.97372,-2.39981 -21.88709,-13.24108 -21.82346,-26.54376 0.0354,-7.39321 1.80268,-12.05806 6.66744,-17.59871 10.71198,-12.20028 30.04091,-11.93216 40.73809,0.56508 4.55444,5.32084 6.06494,9.84243 6.0404,18.08152 -0.0486,16.29386 -15.22398,28.52918 -31.62247,25.49587 z m 11.0011,-17.14699 c 5.75971,-2.81864 6.58164,-11.91542 1.53279,-16.96427 -5.83491,-5.83491 -15.96049,-3.20139 -18.00339,4.68242 -1.20226,4.63966 -0.45693,7.66378 2.65605,10.77677 3.8046,3.8046 8.14854,4.27786 13.81455,1.50508 z M 166.684,458.09512 c -1.8005,-0.75705 -3.58548,-2.1891 -3.96661,-3.18232 -2.37104,-6.17883 1.28612,-10.63348 9.6419,-11.74442 7.47181,-0.99342 14.33262,-5.51806 18.10113,-11.93752 5.31985,-9.06209 3.53192,-21.73498 -4.06554,-28.81656 -3.51081,-3.27242 -11.44715,-6.68164 -15.61895,-6.70944 -6.76922,-0.0451 -10.86238,-7.20173 -7.15019,-12.50163 2.13361,-3.04615 6.23063,-3.80542 13.29473,-2.4638 8.37611,1.59079 14.73923,4.99749 20.83727,11.15589 14.68669,14.83203 15.69843,36.26289 2.50365,53.03288 -7.56655,9.61676 -25.39428,16.60766 -33.57739,13.16692 z m 338.41628,-60.31298 c -4.7888,-1.4346 -10.9125,-6.1459 -13.94546,-10.72903 -13.173,-19.90573 3.87489,-45.4193 27.54015,-41.2161 15.66265,2.78185 25.23479,18.40668 20.88077,34.08415 -2.91123,10.48244 -14.42859,19.03601 -25.40649,18.86859 -3.30634,-0.0504 -7.38738,-0.50385 -9.06897,-1.00761 z m 14.9326,-16.79109 c 9.42093,-7.63125 3.61202,-20.78456 -8.59712,-19.46678 -8.61636,0.93 -11.73051,12.08044 -5.19824,18.61271 3.31885,3.31885 10.22473,3.74639 13.79536,0.85407 z M 95.891086,390.3481 c -4.017585,-4.01759 -2.106468,-17.30611 3.859218,-26.83421 3.965796,-6.33398 10.076216,-11.64294 17.474116,-15.18216 l 6.93333,-3.31696 40.7527,-0.31397 c 39.8392,-0.30693 40.80158,-0.26509 42.93333,1.86667 2.92076,2.92076 2.88894,8.67509 -0.0628,11.34864 -2.09753,1.89988 -4.81954,2.06666 -41.86666,2.56532 -43.61543,0.58707 -42.54615,0.42358 -49.53692,7.57391 -3.51667,3.59694 -6.01111,9.25978 -7.14431,16.21892 -0.36357,2.23272 -1.59426,4.99272 -2.73488,6.13333 -2.6865,2.68651 -7.89035,2.65732 -10.607164,-0.0595 z M 232.42441,359.7247 c -5.49001,-2.01864 -7.21681,-9.09312 -3.2,-13.10993 1.97588,-1.97589 3.55556,-2.13334 21.40346,-2.13334 10.59856,0 20.14807,0.46987 21.22113,1.04415 5.03136,2.6927 4.40525,10.82777 -1.04561,13.58577 -2.67658,1.35428 -34.96071,1.87023 -38.37898,0.61335 z m 253.30965,-58.83908 c -12.3479,-5.60925 -18.72958,-20.54704 -14.39243,-33.68874 l 1.32812,-4.02424 -8.65601,-8.70122 c -7.20299,-7.24061 -8.65601,-9.27243 -8.65601,-12.10405 0,-4.24693 3.52627,-7.75261 7.79813,-7.75261 2.47804,0 4.99268,1.8189 12.08428,8.74084 8.93102,8.71735 8.96454,8.73741 12.47873,7.46666 4.38104,-1.5842 12.70519,-1.63256 18.20422,-0.10575 5.58509,1.5507 14.98219,10.94781 16.53289,16.5329 1.47641,5.31752 1.47641,12.6132 0,17.93072 -1.5507,5.58509 -10.9478,14.98219 -16.53289,16.53289 -6.29847,1.74878 -15.33306,1.37851 -20.18903,-0.8274 z m 18.77238,-17.12213 c 6.97762,-6.97762 2.16523,-18.21539 -7.80043,-18.21539 -6.39376,0 -10.70586,4.29632 -10.70586,10.66667 0,9.81471 11.53513,14.51989 18.50629,7.54872 z M 92.691086,299.11161 C 75.6119,293.8174 62.95294,277.82244 62.46923,260.92541 c -0.15372,-5.36969 0.16705,-6.50288 2.34003,-8.26667 1.38499,-1.12419 3.68681,-2.04398 5.11515,-2.04398 3.312597,0 7.833344,4.47723 7.833344,7.75793 0,4.80157 3.153766,13.06027 6.56044,17.17968 1.881945,2.27568 5.855732,5.27099 8.830638,6.65625 4.85761,2.26193 6.909238,2.5197 20.128558,2.52906 10.81568,0.008 15.52001,0.42431 17.7374,1.57097 4.89835,2.53303 5.72796,7.05768 2.13221,11.62894 l -2.21076,2.81051 -16.72258,-0.0743 c -11.10348,-0.0493 -18.335463,-0.57426 -21.522574,-1.5622 z M 246.41063,259.26766 c -1.23909,-1.23909 -2.25289,-3.58609 -2.25289,-5.21555 0,-5.02954 2.49321,-7.2874 9.58837,-8.68329 23.2397,-4.57213 22.53669,-34.18814 -0.90119,-37.96444 -2.55538,-0.41172 -5.55538,-1.65782 -6.66666,-2.7691 -2.69279,-2.69279 -2.5816,-7.85943 0.22964,-10.67067 1.91777,-1.91777 3.21769,-2.1869 8.8,-1.82192 11.96332,0.78218 22.90367,8.49014 28.25421,19.90633 4.01545,8.56758 4.03248,20.56131 0.0411,28.96574 -5.37253,11.31274 -16.6565,19.16636 -28.82594,20.0628 -5.05598,0.37244 -6.37259,0.0842 -8.26667,-1.8099 z m -89.77916,-7.42001 c -3.11744,-2.52435 -3.25236,-7.99499 -0.27071,-10.97664 1.42814,-1.42814 4.46604,-2.46675 8.97777,-3.06934 9.50417,-1.2694 12.78688,-2.4319 19.55717,-6.92576 10.34884,-6.86917 15.68091,-15.55958 18.10013,-29.50026 1.14856,-6.61857 2.12445,-9.32878 3.86724,-10.74001 4.74091,-3.83896 11.12119,-1.22921 12.29527,5.02918 1.00067,5.33405 -2.15797,19.2191 -6.18175,27.17433 -4.35734,8.6147 -15.21163,19.66408 -23.79153,24.21914 -12.13884,6.44451 -27.68502,8.7317 -32.55359,4.78936 z m -51.14039,-16.16622 c -2.68759,-2.68759 -2.82293,-8.64528 -0.2493,-10.97438 1.03622,-0.93777 5.17034,-2.23002 9.18695,-2.87168 12.46049,-1.99057 21.13493,-8.17217 26.33865,-18.7695 3.73645,-7.60926 3.65377,-19.01262 -0.19662,-27.11777 -5.12126,-10.78037 -14.43044,-17.48743 -26.67402,-19.21805 -7.73133,-1.09281 -10.53899,-3.25223 -10.53899,-8.10572 0,-4.4835 3.46997,-7.87623 8.05554,-7.87623 20.01179,0 40.11616,14.8608 45.84509,33.88791 3.80515,12.63774 2.51567,26.78109 -3.44895,37.82921 -7.82109,14.48679 -25.15099,25.30618 -40.58501,25.338 -4.18839,0.009 -6.13776,-0.52622 -7.73334,-2.12179 z m 369.23736,-44.38137 c -19.54723,-9.7408 -19.71954,-37.4261 -0.29608,-47.57304 17.01802,-8.89032 37.3185,1.96754 39.28399,21.01132 2.15654,20.89489 -20.02889,36.0094 -38.98791,26.56172 z m 18.63778,-15.10901 c 4.98518,-4.03816 5.90602,-9.38332 2.56148,-14.86859 -3.48773,-5.72012 -11.38486,-6.61967 -16.49964,-1.87945 -7.41031,6.86764 -2.79138,18.6693 7.28543,18.6147 2.52737,-0.0137 5.33917,-0.80264 6.65273,-1.86666 z M 164.49414,107.67399 c -3.56657,-1.437 -4.91055,-4.89067 -4.07401,-10.469129 2.43108,-16.211608 17.02599,-28.990084 33.11096,-28.990084 7.03956,0 10.09332,2.370402 10.09332,7.834679 0,4.847331 -2.48861,6.765719 -10.43739,8.045832 -3.67278,0.591484 -8.11773,2.100763 -9.87768,3.353953 -3.21428,2.288769 -7.41826,9.168321 -7.41826,12.139517 0,2.991622 -2.36575,6.789482 -4.96781,7.975052 -2.99879,1.36634 -3.29865,1.37148 -6.42913,0.11018 z"
       id="path1" />
  </g>
</svg>
